<?xml version="1.0" standalone="no"?>
<!DOCTYPE svg PUBLIC "-//W3C//DTD SVG 20010904//EN"
 "http://www.w3.org/TR/2001/REC-SVG-20010904/DTD/svg10.dtd">
<svg version="1.0" xmlns="http://www.w3.org/2000/svg"
 width="73.000000pt" height="73.000000pt" viewBox="0 0 73.000000 73.000000"
 preserveAspectRatio="xMidYMid meet">
<metadata>
Created by potrace 1.14, written by Peter Selinger 2001-2017
</metadata>
<g transform="translate(0.000000,73.000000) scale(0.100000,-0.100000)"
fill="#000000" stroke="none">
<path d="M4 708 c-4 -6 -3 -8 3 -5 6 4 13 -2 16 -13 3 -11 0 -23 -5 -27 -6 -3
-8 -1 -4 5 3 6 3 13 -2 16 -4 2 -8 -6 -8 -19 0 -13 4 -21 8 -19 4 3 8 -2 8
-11 0 -9 -4 -14 -8 -11 -4 2 -8 -6 -8 -19 0 -13 4 -21 8 -19 5 3 5 10 2 16 -4
6 -2 8 4 5 5 -4 8 -16 5 -27 -3 -11 -8 -18 -12 -16 -3 2 -7 -7 -8 -21 -1 -19
1 -22 8 -12 6 11 9 8 9 -9 0 -13 -4 -21 -8 -18 -4 2 -8 -6 -8 -19 0 -13 4 -21
8 -19 5 3 5 10 2 16 -4 6 -2 8 4 5 5 -4 8 -16 5 -27 -3 -11 -8 -18 -12 -16 -3
2 -7 -7 -8 -21 -1 -19 1 -22 8 -12 6 11 9 8 9 -9 0 -13 -4 -21 -8 -18 -4 2 -8
-6 -8 -19 0 -13 4 -21 8 -19 5 3 5 10 2 16 -4 6 -2 8 4 5 5 -4 8 -16 5 -27 -3
-11 -8 -18 -12 -16 -3 2 -7 -7 -8 -21 -1 -19 1 -22 8 -12 6 11 9 8 9 -9 0 -13
-4 -21 -8 -18 -4 2 -8 -6 -8 -19 0 -13 4 -21 8 -19 5 3 5 10 2 16 -4 6 -2 8 4
5 5 -4 8 -16 5 -27 -3 -11 -8 -18 -12 -16 -3 2 -7 -7 -8 -21 -1 -19 1 -22 8
-12 6 11 9 8 9 -9 0 -13 -4 -21 -8 -18 -4 2 -8 -6 -8 -19 0 -13 4 -21 8 -19 5
3 5 10 2 16 -4 6 -2 8 4 5 5 -4 8 -16 5 -27 -3 -11 -8 -18 -12 -15 -9 5 -7
-23 4 -47 7 -17 33 -18 352 -18 316 0 345 1 339 16 -5 13 -3 14 6 6 10 -8 13
-2 13 29 1 24 -3 38 -10 35 -6 -2 -12 5 -12 16 -1 10 5 22 13 25 7 3 11 9 8
14 -3 5 -9 7 -13 5 -3 -3 -7 4 -7 15 0 10 5 19 11 19 5 0 10 22 10 50 0 40 -3
49 -15 45 -9 -3 -7 1 4 10 17 13 16 19 -4 17 -3 0 -6 8 -6 19 0 10 5 19 11 19
5 0 10 22 10 50 0 40 -3 49 -15 45 -9 -3 -7 1 4 10 17 13 16 19 -4 17 -3 0 -6
8 -6 19 0 10 5 19 11 19 5 0 10 22 10 50 0 40 -3 49 -15 45 -13 -4 -13 -4 0 8
8 6 16 18 18 26 2 11 0 12 -10 3 -11 -8 -14 -7 -14 9 0 13 5 18 15 14 10 -4 9
0 -4 15 -19 20 -19 21 1 14 15 -5 16 -4 4 5 -21 15 -707 14 -716 -1z m716
-112 c0 -3 -4 -8 -10 -11 -5 -3 -10 -1 -10 4 0 6 5 11 10 11 6 0 10 -2 10 -4z
m-530 -52 c0 -8 5 -12 10 -9 6 3 10 -1 10 -10 0 -11 5 -15 16 -11 8 3 13 2 10
-3 -3 -5 1 -11 9 -15 9 -3 12 -12 8 -22 -4 -12 -3 -15 6 -10 14 9 51 -25 51
-45 0 -7 3 -10 6 -6 8 8 33 -16 27 -25 -2 -5 3 -8 11 -8 9 0 16 -7 16 -16 0
-10 6 -14 15 -10 8 3 14 2 12 -3 -1 -4 19 -28 46 -53 26 -25 47 -51 47 -58 0
-7 7 -10 17 -6 10 4 14 4 10 0 -4 -4 7 -20 24 -35 21 -19 27 -29 18 -35 -8 -5
-10 -3 -5 7 6 10 4 10 -6 -1 -9 -11 -30 -14 -72 -13 -32 1 -65 4 -72 7 -7 3
-15 0 -18 -7 -3 -9 -7 -8 -14 2 -5 7 -12 9 -15 4 -3 -4 -37 -6 -76 -3 -39 3
-71 2 -71 -1 0 -3 -11 -4 -25 -2 -27 6 -34 22 -31 68 1 17 -3 36 -8 43 -5 8
-4 12 5 12 11 0 11 2 -1 10 -12 8 -12 10 5 10 15 0 17 2 6 9 -7 5 -11 13 -7
19 3 6 -1 15 -10 20 -15 8 -15 10 0 15 11 5 15 3 10 -5 -5 -7 -3 -8 6 -3 10 6
9 11 -5 22 -12 8 -14 13 -6 13 11 0 11 3 1 15 -10 12 -9 15 6 15 15 0 16 2 5
9 -7 5 -11 13 -7 19 3 6 -1 15 -10 20 -15 8 -15 10 0 15 11 5 15 3 10 -5 -5
-7 -3 -8 6 -3 10 6 9 11 -5 22 -13 9 -15 13 -5 13 11 0 11 3 2 12 -9 9 -8 16
4 30 18 19 34 15 34 -8z m530 -108 c0 -3 -4 -8 -10 -11 -5 -3 -10 -1 -10 4 0
6 5 11 10 11 6 0 10 -2 10 -4z m0 -160 c0 -3 -4 -8 -10 -11 -5 -3 -10 -1 -10
4 0 6 5 11 10 11 6 0 10 -2 10 -4z m-3 -201 c0 -8 -4 -12 -9 -9 -5 3 -6 10 -3
15 9 13 12 11 12 -6z"/>
<path d="M710 130 c0 -5 5 -10 11 -10 5 0 7 5 4 10 -3 6 -8 10 -11 10 -2 0 -4
-4 -4 -10z"/>
</g>
</svg>